<svg width="273" height="186" viewBox="0 0 273 186" fill="none" xmlns="http://www.w3.org/2000/svg">
<path d="M3 78L120 78.0175" stroke="#6C3E3E" stroke-width="5"/>
<path d="M205 78L270 78" stroke="#6C3E3E" stroke-width="5"/>
<path d="M3 156.5V46C3 31.0883 15.0883 19 30 19H243.003C258.107 19 270.274 31.3905 269.999 46.4923L267.983 156.992C267.715 171.71 255.708 183.5 240.988 183.5H30C15.0883 183.5 3 171.412 3 156.5Z" stroke="#6C3E3E" stroke-width="5"/>
<circle cx="163" cy="101" r="47.5" stroke="#6C3E3E" stroke-width="17"/>
<path d="M36.5 11L30 18.5H62.5L57 11H36.5Z" fill="#6C3E3E"/>
<path d="M103.929 0L91 19H182L167.579 0H103.929Z" fill="#6C3E3E"/>
<path d="M210 7L203 18.5H242.5L233 7H210Z" fill="#6C3E3E"/>
</svg>
