<svg width="271" height="186" viewBox="0 0 271 186" fill="none" xmlns="http://www.w3.org/2000/svg">
<path d="M2 78L119 78.0175" stroke="#6C3E3E" stroke-width="5"/>
<path d="M204 78L269 78" stroke="#6C3E3E" stroke-width="5"/>
<path d="M2 156.5V46C2 31.0883 14.0883 19 29 19H242.003C257.107 19 269.274 31.3905 268.999 46.4923L266.983 156.992C266.715 171.71 254.708 183.5 239.988 183.5H29C14.0883 183.5 2 171.412 2 156.5Z" stroke="#6C3E3E" stroke-width="4"/>
<circle cx="162" cy="101" r="47.5" stroke="#6C3E3E" stroke-width="17"/>
<path d="M35.5 11L29 18.5H61.5L56 11H35.5Z" fill="#6C3E3E"/>
<path d="M102.929 0L90 19H181L166.579 0H102.929Z" fill="#6C3E3E"/>
<path d="M209 7L202 18.5H241.5L232 7H209Z" fill="#6C3E3E"/>
</svg>
