<svg width="27" height="30" viewBox="0 0 73 78" fill="none" xmlns="http://www.w3.org/2000/svg">
<path d="M6 74V4C6 2.34315 7.34315 1 9 1H50.3836L66 18.6159V74C66 75.6569 64.6569 77 63 77H9C7.34315 77 6 75.6569 6 74Z" fill="white"/>
<path d="M66 18.6159V74C66 75.6569 64.6569 77 63 77H9C7.34315 77 6 75.6569 6 74V4C6 2.34315 7.34315 1 9 1H50.3836M66 18.6159L50.3836 1M66 18.6159H53.3836C51.7267 18.6159 50.3836 17.2728 50.3836 15.6159V1" stroke="#6C3E3E"/>
<path d="M14 30H58.5" stroke="#6C3E3E"/>
<path d="M14 46H58.5" stroke="#6C3E3E"/>
<path d="M14 60H58.5" stroke="#6C3E3E"/>
</svg>
