<svg width="119" height="174" viewBox="0 0 119 174" fill="none" xmlns="http://www.w3.org/2000/svg">
<path d="M30.3054 25.4121L36.5727 68.3051L45.2201 24.4409H56.6441L44.0301 84.9767H34.4307L27.6874 42.6502L18.8814 84.9767H7.45741L18.8814 30.0251C15.3379 31.5358 12.6141 33.8018 10.7101 36.8232C8.80608 39.8446 7.85407 43.4595 7.85407 47.6679C7.85407 48.6929 7.90695 49.5831 8.01274 50.3386C8.17141 51.0941 8.40941 51.8224 8.72674 52.5237C8.83253 52.7394 8.88541 52.9012 8.88541 53.0093C8.93828 53.0631 8.96474 53.1173 8.96474 53.1711C6.00295 53.1711 3.83452 52.5508 2.45941 51.3098C1.13719 50.0149 0.476074 48.0187 0.476074 45.3209C0.476074 42.7311 1.11074 40.1144 2.38007 37.4707C3.64941 34.773 5.39474 32.3991 7.61607 30.3488C9.73162 28.3526 12.0852 26.8418 14.6767 25.8167C17.3212 24.7916 20.0714 24.2791 22.9274 24.2791C24.9901 24.2791 26.5239 24.387 27.5287 24.6028C28.5865 24.7646 29.5121 25.0344 30.3054 25.4121Z" fill="white"/>
<path d="M71.7803 141.628H60.3563L71.1457 90.1562L82.887 88.5376L79.1583 106.504H79.6343C82.5962 106.504 85.2408 105.128 87.5677 102.377C89.8949 99.6251 91.0583 96.6306 91.0583 93.3934C91.0583 90.6956 90.1329 88.5647 88.2817 86.9999C86.4836 85.4352 83.9183 84.653 80.5863 84.653C75.033 84.653 70.3262 86.4605 66.465 90.0753C62.657 93.69 60.753 98.4382 60.753 104.319C60.753 105.344 60.8062 106.234 60.9117 106.99C61.0703 107.745 61.3083 108.474 61.6257 109.175C61.7316 109.391 61.7843 109.552 61.7843 109.66C61.8375 109.714 61.8637 109.768 61.8637 109.822C59.0077 109.822 56.8657 109.202 55.4377 107.961C54.0628 106.72 53.375 104.858 53.375 102.377C53.375 99.4632 54.2742 96.6035 56.0723 93.7981C57.9236 90.9926 60.4622 88.5376 63.6883 86.4334C66.3329 84.653 69.2417 83.3043 72.415 82.3869C75.6415 81.4158 78.8942 80.9302 82.173 80.9302C87.3562 80.9302 91.455 82.117 94.4697 84.4911C97.5375 86.8652 99.071 89.9673 99.071 93.7981C99.071 96.334 98.357 98.7619 96.929 101.082C95.501 103.402 93.5708 105.263 91.1377 106.666C94.1523 107.26 96.453 108.716 98.0397 111.036C99.6795 113.302 100.499 116.189 100.499 119.696C100.499 122.232 100.129 124.902 99.3883 127.708C98.6482 130.513 97.6168 132.995 96.2943 135.153C94.7077 137.743 92.8037 139.713 90.5823 141.061C88.361 142.356 85.8755 143.004 83.125 143.004C80.6395 143.004 78.7089 142.491 77.3337 141.466C75.9588 140.441 75.271 138.957 75.271 137.015C75.271 136.367 75.3503 135.666 75.509 134.911C75.6677 134.101 75.9322 133.238 76.3023 132.321C77.3075 133.346 78.2063 134.101 78.9997 134.587C79.8461 135.019 80.7188 135.234 81.6177 135.234C83.9977 135.234 85.9017 133.831 87.3297 131.026C88.7577 128.221 89.4717 124.767 89.4717 120.667C89.4717 117.268 88.837 114.705 87.5677 112.979C86.2983 111.252 84.4209 110.389 81.935 110.389C81.5649 110.389 81.0096 110.416 80.269 110.47C79.5816 110.524 78.9203 110.578 78.2857 110.632L71.7803 141.628Z" fill="white"/>
<path d="M66.2104 27.1206L66.6015 87.5349" stroke="white"/>
<path d="M86.6206 37.1904L44.028 83.042" stroke="white"/>
<path d="M67.4333 32.3721C71.8148 32.3721 75.3667 28.7487 75.3667 24.2791C75.3667 19.8094 71.8148 16.186 67.4333 16.186C63.0519 16.186 59.5 19.8094 59.5 24.2791C59.5 28.7487 63.0519 32.3721 67.4333 32.3721Z" fill="black"/>
<path d="M87.2668 44.5117C91.6483 44.5117 95.2002 40.8884 95.2002 36.4187C95.2002 31.9491 91.6483 28.3257 87.2668 28.3257C82.8854 28.3257 79.3335 31.9491 79.3335 36.4187C79.3335 40.8884 82.8854 44.5117 87.2668 44.5117Z" fill="black"/>
</svg>
