<svg width="369" height="276" viewBox="0 0 369 276" fill="none" xmlns="http://www.w3.org/2000/svg">
<path d="M37.3933 41.8053C26.0333 43.4697 20.8267 48.4629 20.8267 48.4629L0 35.5637C0 35.5637 5.20667 30.9866 17.9867 28.0738C30.7667 25.1611 48 28.7749 53.5 31.7749C59 34.7749 63.14 38.3356 65.32 41.8053C67.5 45.2749 72.0267 57.9225 72.5 59.2749C68.24 54.6977 55.5 45.2749 55.5 45.2749C55.5 45.2749 48.7533 40.1408 37.3933 41.8053Z" fill="#6C3E3E"/>
<path d="M107.5 58.5L117 220.5L129 232L121.5 54.5L107.5 58.5Z" fill="#6C3E3E"/>
<path d="M228 8L236 174L248 185.5L245 95.5L240.5 8H228Z" fill="#6C3E3E"/>
<path d="M0.5 36.4242L44.1997 121.078L57.8027 122.565L35.3457 76.1569L12.0496 31.6434L0.5 36.4242Z" fill="#6C3E3E"/>
<path d="M129 234.5C129 252.725 108.181 267.5 82.5 267.5C56.8188 267.5 36 252.725 36 234.5C36 216.275 56.8188 201.5 82.5 201.5C108.181 201.5 129 216.275 129 234.5Z" fill="#6C3E3E"/>
<path d="M248 183C248 201.225 227.181 216 201.5 216C175.819 216 155 201.225 155 183C155 164.775 175.819 150 201.5 150C227.181 150 248 164.775 248 183Z" fill="#6C3E3E"/>
<path d="M107.641 58.7997C106.99 56.3481 108.279 53.7978 110.638 52.8664L233.59 4.32443C236.768 3.0701 240.239 5.29993 240.42 8.71089L242.259 43.4689C242.371 45.5957 241.124 47.5604 239.152 48.3637L123.231 95.5744C120.44 96.7111 117.285 95.139 116.512 92.2263L107.641 58.7997Z" fill="#6C3E3E"/>
<ellipse cx="33.4481" cy="131.585" rx="26" ry="17.5" transform="rotate(-24.8638 33.4481 131.585)" fill="#6C3E3E"/>
<path d="M332.588 186.927C323.08 180.491 315.868 180.663 315.868 180.663L309.2 157.091C309.2 157.091 316.131 157.225 327.529 163.699C338.927 170.172 349.208 184.467 351.243 190.392C353.279 196.317 353.932 201.738 353.2 205.77C352.468 209.802 347.275 222.191 346.712 223.508C346.656 217.256 343.611 201.705 343.611 201.705C343.611 201.705 342.095 193.364 332.588 186.927Z" fill="#6C3E3E"/>
<path d="M308.989 158.063L284.125 250.029L293.162 260.305L307.899 210.9L320.739 162.327L308.989 158.063Z" fill="#6C3E3E"/>
<ellipse cx="269.1" cy="250.53" rx="26" ry="17.5" transform="rotate(17.5685 269.1 250.53)" fill="#6C3E3E"/>
</svg>
