<svg width="30" height="50" viewBox="0 0 41 62" fill="none" xmlns="http://www.w3.org/2000/svg">
<path d="M17.5002 25L17.5747 25L17.6459 24.9783C18.0555 24.8535 18.4277 24.9041 18.8459 25.2179C19.2968 25.5563 19.7988 26.2027 20.3703 27.2886C21.5098 29.4538 22.8164 33.1474 24.5703 38.9048C26.3242 44.6623 27.8746 49.8575 28.7043 53.6982C29.1201 55.6232 29.3469 57.1733 29.3378 58.2704C29.3333 58.8213 29.269 59.2182 29.1654 59.4804C29.0662 59.7314 28.9535 59.8101 28.8581 59.8392C28.7607 59.8689 28.6169 59.8659 28.385 59.7116C28.1449 59.5518 27.8603 59.2592 27.5377 58.8082C26.8948 57.9097 26.1866 56.5063 25.426 54.6878C23.9087 51.0598 22.2332 45.9035 20.4807 40.1506C19.8576 38.1052 19.2847 36.2953 18.7798 34.7001C17.8563 31.7822 17.1601 29.5828 16.7999 27.9748C16.5177 26.7147 16.474 25.9393 16.6104 25.498C16.6707 25.3027 16.7591 25.1982 16.866 25.1319C16.9847 25.0583 17.179 25 17.5002 25Z" stroke="#6C3E3E"/>
<path d="M20.6977 18.3491C20.3912 20.1395 20.1161 21.4571 19.8295 22.422C19.5402 23.3956 19.2546 23.954 18.9601 24.2748C18.6918 24.567 18.3902 24.6905 17.9543 24.7141C17.4822 24.7397 16.8973 24.6464 16.0844 24.5072C14.7898 24.2855 13.6001 22.9057 12.8904 20.4856C12.193 18.1074 12.0194 14.892 12.6238 11.3623C13.2643 7.62192 12.1175 4.78901 11.248 2.99871C11.1399 2.77599 11.0358 2.56899 10.9409 2.38043L10.9388 2.3762C10.8441 2.18794 10.7597 2.02025 10.6868 1.86834C10.5875 1.66148 10.5222 1.50883 10.4837 1.39756C10.5754 1.40191 10.6946 1.41541 10.8473 1.44155C11.1527 1.49384 11.5663 1.66788 12.0708 1.98533C12.5684 2.29849 13.1254 2.73259 13.7133 3.27027C14.8889 4.34547 16.1621 5.81098 17.3028 7.48533C19.6021 10.8602 21.2787 14.9563 20.6977 18.3491ZM10.4403 1.22162C10.4403 1.22163 10.4403 1.22227 10.4403 1.22347L10.4403 1.22162Z" stroke="#6C3E3E"/>
</svg>
